/* XPM */
static char * bottom_right_active_xpm[] = {
"16 16 3 1",
" 	c None",
"o	c #BFBFBF",
".	c #1A1A1A",
"ooooooooooooooo.",
"ooooooooooooooo.",
"ooooooooooooooo.",
"ooooooooooooooo.",
"ooooooooooooooo.",
"ooooooooooooooo.",
"ooooooooooooooo.",
"ooooooooooooooo.",
"ooooooooooooooo.",
"ooooooooooooooo.",
"ooooooooooooooo.",
"ooooooooooooooo.",
"ooooooooooooooo.",
"ooooooooooooooo.",
"ooooooooooooooo.",
"................"};
