/* XPM */
static char * right_active_xpm[] = {
"3 21 3 1",
" 	c None",
"o	c #BFBFBF",
".	c #1A1A1A",
"oo.",
"oo.",
"oo.",
"oo.",
"oo.",
"oo.",
"oo.",
"oo.",
"oo.",
"oo.",
"oo.",
"oo.",
"oo.",
"oo.",
"oo.",
"oo.",
"oo.",
"oo.",
"oo.",
"oo.",
"oo."};
